<svg width="184" height="62" viewBox="0 0 184 62" fill="none" xmlns="http://www.w3.org/2000/svg">
<g clip-path="url(#clip0_9409_7362)">
<path d="M8.99669 32.6743C7.21491 32.6743 5.64645 32.2853 4.29129 31.5074C2.93613 30.7044 1.88212 29.6001 1.12926 28.1947C0.376396 26.7644 -3.05176e-05 25.1207 -3.05176e-05 23.2635C-3.05176e-05 21.03 0.55207 19.0725 1.65628 17.3913C2.78556 15.7098 4.37912 14.4173 6.43695 13.5138C8.51987 12.6106 10.9541 12.1588 13.7397 12.1588C15.0196 12.1588 16.0611 12.2466 16.8641 12.4223V11.6318C16.8641 9.72449 16.5128 8.30659 15.8101 7.37807C15.1075 6.42443 14.0409 5.94761 12.6104 5.94761C10.3017 5.94761 8.82102 7.16475 8.16855 9.599C7.96778 10.3017 7.55371 10.6028 6.92632 10.5024L1.80685 9.599C1.4304 9.52372 1.16691 9.3606 1.01633 9.10965C0.890861 8.85868 0.878308 8.51991 0.97871 8.09329C1.63119 5.53354 3.01145 3.55099 5.11946 2.14565C7.25258 0.715219 9.92526 0 13.1375 0C16.952 0 19.8505 1.02891 21.833 3.08674C23.8407 5.14457 24.8445 8.14346 24.8445 12.0836V31.0181C24.8445 31.2941 24.7442 31.5324 24.5435 31.7331C24.3677 31.9089 24.1417 31.9966 23.8657 31.9966H18.9722C18.3699 31.9966 17.9934 31.6704 17.8429 31.0181L17.09 27.4796H16.7889C16.1113 29.1359 15.0949 30.4156 13.7398 31.3191C12.4097 32.2226 10.8287 32.6743 8.99669 32.6743ZM8.20618 22.36C8.20618 23.6902 8.54497 24.7567 9.22254 25.5597C9.92524 26.3377 10.8663 26.7267 12.0458 26.7267C13.6017 26.7267 14.7938 26.0364 15.6219 24.6562C16.45 23.2509 16.8641 21.2432 16.8641 18.6335V16.6383C16.1614 16.5128 15.4964 16.45 14.869 16.45C12.8112 16.45 11.18 16.9895 9.97541 18.0688C8.79592 19.1227 8.20618 20.5532 8.20618 22.36ZM29.5122 1.65628C29.5122 1.38024 29.6001 1.15439 29.7757 0.978716C29.9764 0.777944 30.2149 0.67757 30.4909 0.67757H35.4598C35.7358 0.67757 35.9618 0.765392 36.1373 0.941065C36.3383 1.11674 36.4636 1.35514 36.5138 1.65628L37.2668 5.34532H37.5678C38.2455 3.61374 39.2115 2.29623 40.4665 1.39279C41.7463 0.464247 43.252 0 44.9835 0C46.8407 0 48.4342 0.489346 49.7642 1.46808C51.1194 2.4468 52.1609 3.83961 52.8886 5.64647H53.1899C54.2941 3.73921 55.5364 2.32133 56.9166 1.39279C58.2968 0.464247 59.8401 0 61.5466 0C63.4038 0 65.0098 0.501896 66.365 1.50571C67.7452 2.50955 68.7992 3.93998 69.527 5.79704C70.2547 7.65412 70.6187 9.84997 70.6187 12.3846V31.0181C70.6187 31.2941 70.5182 31.5324 70.3175 31.7331C70.1417 31.9089 69.916 31.9966 69.64 31.9966H63.617C63.341 31.9966 63.1025 31.9089 62.9018 31.7331C62.726 31.5324 62.6383 31.2941 62.6383 31.0181V12.9868C62.6383 11.1548 62.287 9.74957 61.5843 8.77085C60.8816 7.79214 59.8653 7.30277 58.5351 7.30277C57.0796 7.30277 55.9629 7.87996 55.1849 9.03435C54.4321 10.1887 54.0556 11.8576 54.0556 14.0408V31.0181C54.0556 31.2941 53.9551 31.5324 53.7544 31.7331C53.5789 31.9089 53.3529 31.9966 53.0769 31.9966H47.054C46.778 31.9966 46.5395 31.9089 46.3387 31.7331C46.163 31.5324 46.0752 31.2941 46.0752 31.0181V12.9868C46.0752 11.1548 45.724 9.74957 45.0212 8.77085C44.3185 7.79214 43.3022 7.30277 41.9723 7.30277C40.5165 7.30277 39.3998 7.87996 38.6218 9.03435C37.8691 10.1887 37.4926 11.8576 37.4926 14.0408V31.0181C37.4926 31.2941 37.3923 31.5324 37.1916 31.7331C37.0158 31.9089 36.7898 31.9966 36.5138 31.9966H30.4909C30.2149 31.9966 29.9764 31.9089 29.7757 31.7331C29.6001 31.5324 29.5122 31.2941 29.5122 31.0181V1.65628ZM74.5334 23.2635C74.5334 21.03 75.0857 19.0725 76.1899 17.3913C77.3191 15.7098 78.9126 14.4173 80.9706 13.5138C83.0533 12.6106 85.4878 12.1588 88.2733 12.1588C89.5532 12.1588 90.5947 12.2466 91.3977 12.4223V11.6318C91.3977 9.72449 91.0462 8.30659 90.3437 7.37807C89.641 6.42443 88.5745 5.94761 87.144 5.94761C84.8353 5.94761 83.3546 7.16475 82.7021 9.599C82.5013 10.3017 82.0873 10.6028 81.4598 10.5024L76.3404 9.599C75.9639 9.52372 75.7004 9.3606 75.5499 9.10965C75.4244 8.85868 75.4119 8.51991 75.5122 8.09329C76.1646 5.53354 77.5449 3.55099 79.6531 2.14565C81.7861 0.715219 84.4588 0 87.671 0C91.4855 0 94.3839 1.02891 96.3667 3.08674C98.3742 5.14457 99.3781 8.14346 99.3781 12.0836V31.0181C99.3781 31.2941 99.2776 31.5324 99.0769 31.7331C98.9011 31.9089 98.6754 31.9966 98.3994 31.9966H93.5057C92.9035 31.9966 92.527 31.6704 92.3765 31.0181L91.6235 27.4796H91.3225C90.6447 29.1359 89.6285 30.4156 88.2733 31.3191C86.9433 32.2226 85.3623 32.6743 83.5303 32.6743C81.6983 32.6743 80.1801 32.2853 78.8249 31.5074C77.4696 30.7044 76.4156 29.6001 75.6629 28.1947C74.9099 26.7644 74.5334 25.1207 74.5334 23.2635ZM82.7398 22.36C82.7398 23.6902 83.0786 24.7567 83.7561 25.5597C84.4588 26.3377 85.3998 26.7267 86.5793 26.7267C88.1353 26.7267 89.3273 26.0364 90.1555 24.6562C90.9835 23.2509 91.3977 21.2432 91.3977 18.6335V16.6383C90.695 16.5128 90.03 16.45 89.4025 16.45C87.3448 16.45 85.7135 16.9895 84.509 18.0688C83.3296 19.1227 82.7398 20.5532 82.7398 22.36ZM103.444 26.4632C103.444 25.9112 103.594 25.4342 103.895 25.0327L116.769 7.00163H104.723C104.447 7.00163 104.209 6.9138 104.008 6.73813C103.833 6.53736 103.745 6.29896 103.745 6.02291V1.65628C103.745 1.38024 103.833 1.15439 104.008 0.978716C104.209 0.777944 104.447 0.67757 104.723 0.67757H124.524C124.8 0.67757 125.026 0.777944 125.201 0.978716C125.402 1.15439 125.502 1.38024 125.502 1.65628V6.21111C125.502 6.76323 125.352 7.24002 125.051 7.64157L113.381 23.6775C114.084 23.5522 114.799 23.4894 115.527 23.4894C117.334 23.4894 118.99 23.6524 120.496 23.9787C122.027 24.2799 123.608 24.7817 125.239 25.4844C125.816 25.7354 126.105 26.1619 126.105 26.7644V31.0934C126.105 31.4949 125.979 31.7709 125.728 31.9214C125.477 32.0469 125.164 32.0344 124.787 31.8838C122.905 31.1811 121.236 30.6918 119.781 30.4156C118.35 30.1146 116.782 29.9639 115.075 29.9639C113.369 29.9639 111.738 30.1146 110.106 30.4156C108.5 30.7168 106.719 31.2061 104.761 31.8838C104.385 32.0093 104.071 32.0093 103.82 31.8838C103.569 31.7331 103.444 31.4696 103.444 31.0933V26.4632ZM127.761 16.337C127.761 13.2755 128.351 10.5024 129.53 8.01799C130.71 5.50844 132.328 3.55099 134.386 2.14565C136.469 0.715219 138.778 0 141.312 0C143.847 0 146.181 0.715219 148.239 2.14565C150.322 3.55099 151.953 5.50844 153.133 8.01799C154.337 10.5024 154.94 13.2755 154.94 16.337C154.94 19.3987 154.337 22.1845 153.133 24.6939C151.953 27.1784 150.322 29.1359 148.239 30.5664C146.181 31.9716 143.872 32.6743 141.312 32.6743C138.753 32.6743 136.469 31.9716 134.386 30.5664C132.328 29.1359 130.71 27.1784 129.53 24.6939C128.351 22.1845 127.761 19.3987 127.761 16.337ZM136.042 16.337C136.042 19.5242 136.494 21.9837 137.398 23.7152C138.301 25.4217 139.606 26.2749 141.312 26.2749C143.019 26.2749 144.337 25.4217 145.265 23.7152C146.194 21.9837 146.658 19.5242 146.658 16.337C146.658 13.1501 146.194 10.7032 145.265 8.99673C144.337 7.26512 143.019 6.39933 141.312 6.39933C139.606 6.39933 138.301 7.26512 137.398 8.99673C136.494 10.7032 136.042 13.1501 136.042 16.337ZM159.005 1.65628C159.005 1.38024 159.093 1.15439 159.268 0.978716C159.469 0.777944 159.707 0.67757 159.983 0.67757H164.952C165.228 0.67757 165.454 0.765392 165.63 0.941065C165.831 1.11674 165.956 1.35514 166.006 1.65628L166.759 5.34532H167.06C167.738 3.63884 168.729 2.32133 170.034 1.39279C171.364 0.464247 172.92 0 174.702 0C176.609 0 178.253 0.501896 179.633 1.50571C181.039 2.50955 182.118 3.93998 182.871 5.79704C183.623 7.65412 184 9.84997 184 12.3846V31.0181C184 31.2941 183.899 31.5324 183.699 31.7331C183.523 31.9089 183.297 31.9966 183.021 31.9966H176.998C176.722 31.9966 176.484 31.9089 176.283 31.7331C176.108 31.5324 176.02 31.2941 176.02 31.0181V12.9868C176.02 11.1548 175.643 9.74957 174.89 8.77085C174.137 7.79214 173.071 7.30277 171.691 7.30277C170.16 7.30277 168.993 7.87996 168.19 9.03435C167.387 10.1887 166.985 11.8576 166.985 14.0408V31.0181C166.985 31.2941 166.885 31.5324 166.684 31.7331C166.508 31.9089 166.283 31.9966 166.006 31.9966H159.983C159.707 31.9966 159.469 31.9089 159.268 31.7331C159.093 31.5324 159.005 31.2941 159.005 31.0181V1.65628Z" fill="white"/>
<path d="M20.9302 36.3257C20.4534 36.7022 20.353 37.3294 20.6291 38.2079C20.88 38.9859 21.4698 39.9519 22.3983 41.1064C26.1374 45.7241 30.5919 49.5635 35.7616 52.6253C40.9313 55.687 46.465 57.9454 52.3624 59.4009C58.2848 60.8817 64.3328 61.6219 70.5062 61.6219C78.4114 61.6219 85.94 60.4677 93.0922 58.1587C100.244 55.875 106.217 52.6628 111.011 48.5221C112.692 47.0416 113.532 45.8621 113.532 44.9836C113.532 44.6573 113.394 44.3311 113.118 44.0049C112.742 43.6286 112.29 43.5031 111.763 43.6286C111.236 43.7539 110.496 44.0676 109.542 44.5696C104.95 46.9788 99.3536 48.8985 92.7535 50.329C86.1785 51.7845 79.3149 52.5123 72.1627 52.5123C63.304 52.5123 54.7464 51.3078 46.49 48.8985C38.2336 46.4893 30.9181 42.7251 24.544 37.6057C23.6155 36.8779 22.8625 36.4134 22.2854 36.2127C21.7333 36.0119 21.2815 36.0497 20.9302 36.3257Z" fill="white"/>
<path d="M104.572 38.2092C104.045 38.7112 103.907 39.2382 104.158 39.7905C104.334 40.192 104.673 40.4177 105.175 40.468C105.676 40.5432 106.392 40.493 107.32 40.3175C108.826 39.9912 110.394 39.7652 112.025 39.6397C113.657 39.5395 115.075 39.5645 116.279 39.715C117.484 39.8907 118.237 40.192 118.538 40.6185C118.99 41.2962 118.826 42.7264 118.048 44.9099C117.296 47.0931 116.267 49.2136 114.962 51.2716C114.46 52.0996 114.159 52.7521 114.058 53.2291C113.958 53.7058 114.083 54.1073 114.435 54.4336C114.66 54.6593 114.911 54.7723 115.187 54.7723C115.915 54.7723 116.969 54.1323 118.35 52.8526C120.834 50.6944 122.578 48.1346 123.582 45.1734C124.134 43.6424 124.473 42.0364 124.598 40.355C124.724 38.6737 124.536 37.469 124.034 36.7413C123.557 36.0385 122.503 35.4613 120.872 35.0098C119.266 34.558 117.647 34.332 116.016 34.332C112.828 34.332 109.804 35.085 106.944 36.5907C105.89 37.168 105.099 37.7075 104.572 38.2092Z" fill="white"/>
</g>
<defs>
<clipPath id="clip0_9409_7362">
<rect width="184" height="61.6208" fill="white"/>
</clipPath>
</defs>
</svg>
