<svg width="220" height="50" viewBox="0 0 220 50" fill="none" xmlns="http://www.w3.org/2000/svg">
<path d="M69.6606 27.4277C67.2534 27.4277 65.4381 26.8964 64.2543 25.8143C63.0704 24.7321 62.4587 23.2761 62.4587 21.4069V16.0157C62.4587 14.1268 63.0309 12.6511 64.1951 11.5493C65.3592 10.4474 67.135 9.89648 69.5422 9.89648C71.831 9.89648 73.5082 10.3097 74.5934 11.1361C75.6786 11.9625 76.2705 13.3398 76.3692 15.2483L73.153 15.4648C73.0544 14.4023 72.7584 13.6349 72.3046 13.1627C71.831 12.6905 70.9234 12.4543 69.5619 12.4543C68.0427 12.4543 66.9969 12.7692 66.4642 13.3988C65.9314 14.0284 65.6552 14.9729 65.6552 16.2124V21.1708C65.6552 22.3907 65.9512 23.3154 66.5431 23.9254C67.135 24.5353 68.24 24.8501 69.8382 24.8501C71.2786 24.8501 72.2257 24.5353 72.6992 23.886C73.1727 23.2367 73.3898 22.2726 73.3701 20.9346H69.4041V18.3768H76.5862V21.2888C76.5862 23.158 76.0338 24.6337 74.9091 25.7552C73.8041 26.8571 72.0481 27.4277 69.6606 27.4277Z" fill="white"/>
<path d="M88.0493 27.428C85.6026 27.428 83.8268 26.8968 82.7219 25.8343C81.6367 24.7718 81.0842 23.1977 81.0842 21.0924V10.1133H84.3004V20.8563C84.3004 22.2139 84.5569 23.1977 85.0699 23.8077C85.5829 24.4176 86.5695 24.7325 88.0493 24.7325C89.5291 24.7325 90.5354 24.4176 91.0287 23.8077C91.5417 23.1977 91.7982 22.1943 91.7982 20.8563V10.1133H95.0144V21.0727C95.0144 23.1781 94.4619 24.7718 93.3767 25.8146C92.2915 26.8968 90.5157 27.428 88.0493 27.428Z" fill="white"/>
<path d="M100.499 27.1323V10.1914H103.715V27.1323H100.499Z" fill="white"/>
<path d="M179.466 27.1323V10.1914H182.682V27.1323H179.466Z" fill="white"/>
<path d="M109.201 27.2116V10.1133H115.87C118.159 10.1133 119.935 10.6839 121.218 11.8054C122.5 12.9466 123.131 14.442 123.131 16.3309V21.0727C123.131 22.9419 122.48 24.4176 121.198 25.5392C119.915 26.641 118.12 27.2116 115.851 27.2116H109.201ZM112.398 24.6341H115.614C117.192 24.6341 118.297 24.2996 118.929 23.6503C119.58 23.001 119.896 22.0565 119.896 20.8563V16.5473C119.896 15.3471 119.58 14.3829 118.929 13.714C118.278 13.0253 117.173 12.6908 115.614 12.6908H112.398V24.6341Z" fill="white"/>
<path d="M127.826 27.2116V10.1133H139.823V12.6711H131.042V16.7244H138.757V19.2822H131.042V24.6144H139.823V27.1723H127.826V27.2116Z" fill="white"/>
<path d="M144.303 27.2116V10.1133H150.992C152.827 10.1133 154.228 10.5265 155.234 11.3529C156.241 12.1792 156.734 13.3401 156.734 14.8552V17.0785C156.734 18.5542 156.241 19.6758 155.234 20.4825C154.228 21.2892 152.827 21.6827 150.992 21.6827H147.519V27.2116H144.303ZM147.519 19.1052H150.617C151.643 19.1052 152.393 18.9281 152.827 18.5542C153.281 18.2001 153.498 17.5901 153.498 16.7244V15.0716C153.498 14.2255 153.281 13.5959 152.827 13.2221C152.373 12.8482 151.643 12.6515 150.617 12.6515H147.519V19.1052Z" fill="white"/>
<path d="M167.762 27.4277C165.473 27.4277 163.757 26.9161 162.573 25.8733C161.389 24.8501 160.797 23.3548 160.797 21.4069V16.0157C160.797 14.0284 161.389 12.5331 162.573 11.4706C163.757 10.4277 165.493 9.89648 167.782 9.89648C170.071 9.89648 171.787 10.4277 172.971 11.4706C174.135 12.5134 174.727 14.0284 174.727 16.0157V21.3872C174.727 23.3351 174.135 24.8305 172.951 25.8536C171.768 26.8964 170.051 27.4277 167.762 27.4277ZM167.762 24.8501C169.124 24.8501 170.09 24.5747 170.663 24.0041C171.235 23.4335 171.511 22.489 171.511 21.1708V16.2321C171.511 14.8745 171.235 13.8907 170.663 13.3201C170.09 12.7495 169.124 12.474 167.762 12.474C166.401 12.474 165.434 12.7692 164.862 13.3201C164.289 13.8907 164.013 14.8548 164.013 16.2321V21.1904C164.013 22.5087 164.289 23.4532 164.862 24.0238C165.414 24.5747 166.381 24.8501 167.762 24.8501Z" fill="white"/>
<path d="M197.776 27.2116L191.166 13.6549V27.2116H188.325V10.1133H192.764L199.433 23.8274V10.1133H202.255V27.1919H197.776V27.2116Z" fill="white"/>
<path d="M211.229 27.2115V12.6907H205.882V10.1328H219.793V12.6907H214.446V27.2115H211.229Z" fill="white"/>
<path d="M66.5351 44.0353C65.7853 44.0353 65.0947 43.9173 64.4633 43.6615C63.8319 43.4057 63.2991 43.0122 62.8848 42.4416L63.6346 41.4381C64.0292 41.8907 64.4633 42.2252 64.9566 42.4416C65.4498 42.6384 66.0418 42.7564 66.7324 42.7564C67.3046 42.7564 67.7584 42.658 68.0544 42.4416C68.37 42.2252 68.5279 41.93 68.5279 41.5168C68.5279 41.143 68.37 40.8872 68.0346 40.7101C67.6992 40.5527 67.0283 40.3756 66.0023 40.2182C64.9566 40.0608 64.2068 39.805 63.7727 39.4509C63.3386 39.0967 63.1216 38.5458 63.1216 37.8374C63.1216 37.0701 63.3978 36.4405 63.97 35.9682C64.5422 35.4763 65.3512 35.2402 66.4167 35.2402C67.127 35.2402 67.7978 35.3583 68.3898 35.5944C68.9817 35.8305 69.4553 36.2044 69.7907 36.6962L69.1001 37.6604C68.7449 37.2865 68.3306 36.9914 67.8768 36.8143C67.423 36.6372 66.9297 36.5388 66.3969 36.5388C65.9037 36.5388 65.4893 36.6372 65.2131 36.8143C64.9171 36.9914 64.779 37.2865 64.779 37.68C64.779 38.0539 64.9566 38.3097 65.292 38.4671C65.6274 38.6245 66.3377 38.8016 67.3835 38.9787C68.4095 39.1557 69.1198 39.4115 69.5539 39.7854C69.9683 40.1395 70.1853 40.6904 70.1853 41.3988C70.1853 42.2448 69.8696 42.9138 69.2185 43.386C68.5674 43.7992 67.6795 44.0353 66.5351 44.0353Z" fill="white"/>
<path d="M77.2503 43.937V35.2402H83.3472V36.5388H78.888V38.6048H82.8145V39.9034H78.888V42.6187H83.3472V43.9173H77.2503V43.937Z" fill="white"/>
<path d="M94.1361 44.0538C92.8931 44.0538 91.9657 43.7783 91.354 43.2471C90.7424 42.7158 90.4464 41.9681 90.4464 40.9844V38.2494C90.4464 37.2656 90.7621 36.4983 91.3738 35.9473C91.9854 35.4161 92.9128 35.1406 94.1756 35.1406C95.3595 35.1406 96.2474 35.3767 96.8393 35.8686C97.4312 36.3605 97.7667 37.1279 97.8061 38.1904L96.1684 38.3084C96.1092 37.6001 95.9317 37.1082 95.6357 36.8524C95.32 36.5966 94.8267 36.4589 94.1559 36.4589C93.4061 36.4589 92.8733 36.5966 92.5576 36.8918C92.2419 37.1869 92.0841 37.6788 92.0841 38.3675V40.886C92.0841 41.5746 92.2419 42.0469 92.5576 42.3223C92.8733 42.5978 93.4061 42.7552 94.1559 42.7552C94.8662 42.7552 95.3595 42.6175 95.6752 42.342C95.9711 42.0665 96.1487 41.5943 96.1684 40.945L97.8061 41.0631C97.7864 42.0862 97.4707 42.8339 96.8788 43.3258C96.2671 43.798 95.3595 44.0538 94.1361 44.0538Z" fill="white"/>
<path d="M108.249 44.0549C107.006 44.0549 106.098 43.7794 105.546 43.2482C104.993 42.7169 104.717 41.9102 104.717 40.828V35.2598H106.354V40.7297C106.354 41.4183 106.493 41.9102 106.749 42.225C107.006 42.5398 107.519 42.6972 108.268 42.6972C109.018 42.6972 109.531 42.5398 109.788 42.225C110.044 41.9102 110.182 41.3986 110.182 40.7297V35.2598H111.82V40.828C111.82 41.8905 111.544 42.6972 110.991 43.2482C110.399 43.7794 109.492 44.0549 108.249 44.0549Z" fill="white"/>
<path d="M120.615 43.937H118.977V35.2402H123.18C124.087 35.2402 124.758 35.437 125.232 35.8502C125.705 36.2437 125.942 36.834 125.942 37.6013V38.3293C125.942 38.9786 125.784 39.5099 125.449 39.9034C125.113 40.2969 124.62 40.5527 123.969 40.6708L126.139 43.937H124.285L122.154 40.7495H120.595V43.937H120.615ZM120.615 39.4509H122.904C123.417 39.4509 123.791 39.3722 124.008 39.1951C124.226 39.018 124.324 38.7425 124.324 38.3293V37.6604C124.324 37.2668 124.226 36.9717 124.008 36.8143C123.791 36.6569 123.436 36.5782 122.904 36.5782H120.615V39.4509Z" fill="white"/>
<path d="M134.248 35.2402V43.937H132.61V35.2402H134.248Z" fill="white"/>
<path d="M143.565 43.9368V36.5584H140.842V35.2598H147.925V36.5584H145.202V43.9368H143.565Z" fill="white"/>
<path d="M157.81 43.937H156.172V40.6708L153.035 35.2402H154.791L157.04 39.3131L159.27 35.2402H160.947L157.81 40.6708V43.937Z" fill="white"/>
<path d="M41.7915 22.4696C41.8704 23.1582 41.9296 23.8666 41.9296 24.5946C41.9296 34.2751 34.0371 42.1258 24.3491 42.1258C14.6612 42.1258 6.76869 34.2554 6.76869 24.5946C6.76869 14.9337 14.6612 7.06338 24.3491 7.06338C27.5259 7.06338 30.525 7.90944 33.09 9.40481L39.4435 5.88282C35.2999 2.5576 30.0514 0.570339 24.3294 0.570339C11.0504 0.550664 0.217957 11.333 0.217957 24.5946C0.217957 37.8561 11.0504 48.6385 24.3491 48.6385C37.6479 48.6385 48.4606 37.8561 48.4606 24.5946C48.4606 21.5448 47.8884 18.6131 46.8426 15.9175L41.7915 22.4696Z" fill="white"/>
<path d="M50.3959 4.50586L41.0631 16.7442L30.8621 30.478L15.1561 33.4491L50.3959 4.50586Z" fill="white"/>
<path d="M50.3959 4.50586L15.1561 33.4491L20.6019 19.2824L50.3959 4.50586Z" fill="white"/>
</svg>
