<svg width="640" height="97" viewBox="0 0 640 97" fill="none" xmlns="http://www.w3.org/2000/svg">
<path d="M608.729 0.154297C609.066 -0.210069 609.666 0.123817 609.534 0.602539L598.538 37.9463H639.53C640.032 37.9463 640.188 38.6238 639.737 38.8467L592.102 61.5908L583.504 96.6484C583.342 97.2353 582.468 97.0306 582.582 96.4346L588.904 63.166L593.702 37.9463L596.98 20.7109L578.125 37.9463H589.322L588.761 42.582L579.742 42.3828L570.334 42.1748L421.036 38.8955C420.421 38.8862 420.448 37.9463 421.063 37.9463H573.774L608.729 0.154297ZM55.877 46.8467C70.5355 46.8468 72.2643 57.4164 70.3311 66.4043C67.2269 81.1117 55.8767 85.6025 47.123 85.6025C37.3516 85.6025 29.4116 80.193 32.3115 66.4551C32.8219 64.0033 34.8058 56.6509 40.4043 51.9521C46.051 47.2534 53.1782 46.8467 55.877 46.8467ZM97.6025 47.1055C103.558 47.1055 107.782 48.5365 110.021 51.5996C112.312 54.7621 111.652 58.0843 111.396 59.4609H100.914V59.458C101.268 55.7322 98.9293 54.3525 96.0264 54.3525C89.8664 54.3527 86.8136 60.0218 85.3877 66.7627C84.8773 69.0102 82.9984 78.3015 90.8838 78.3018C96.278 78.3018 97.6536 74.3684 98.1641 72.9404H108.749C106.254 84.4821 94.3458 85.4521 89.5605 85.4521C85.9973 85.4521 79.84 84.8408 76.6338 80.5488C73.5298 76.2597 74.0878 70.3889 74.9043 66.5576C75.973 61.5005 78.2127 56.4463 82.4873 52.5156C87.1704 48.2265 92.259 47.1055 97.6025 47.1055ZM224.977 55.0186H207.469L205.839 62.6777H222.329L220.801 69.7266H204.312L202.681 77.5908H220.597L219.069 84.7383H191.078L198.865 47.9727V47.9697H226.451L224.977 55.0186ZM258.918 55.0186H241.41L239.78 62.6777H256.271L254.742 69.7266H238.252L236.622 77.5908H254.538L253.01 84.7383H225.02L232.807 47.9727V47.9697H260.392L258.918 55.0186ZM282.474 47.8682C286.85 47.8682 292.599 48.3285 295.856 50.9307C300.489 54.6596 300.693 60.7354 299.522 66.1992C297.793 74.3708 293.923 80.398 285.884 83.3076C281.813 84.7381 277.335 84.7383 274.789 84.7383H259.167L266.954 47.8711L266.951 47.8682H282.474ZM361.96 84.7383H352.342L359.366 53.792L344.099 84.7383H334.937L333.156 53.5361L326.795 84.7383H317.99L325.777 47.8711L325.774 47.8682H341.808L342.673 72.8379L353.717 47.8682L369.747 47.8164L361.96 84.7383ZM436.149 47.8682C442.765 47.8682 445.209 48.2776 446.887 50.5244C447.802 51.6479 448.77 53.69 447.956 57.6719C447.092 61.7049 445.107 63.4433 443.123 64.5156C440.475 65.9945 438.184 66.2507 437.118 66.4043L437.067 66.6084C444.191 66.8132 443.888 69.982 443.531 75.6475C443.327 78.1505 443.021 82.1329 443.327 84.7383H432.282C432.129 82.4913 432.487 79.6811 432.844 76.4131C433.3 71.9703 433.504 70.3379 428.923 70.3379H424.648L421.596 84.7383H411.367L419.154 47.8711L419.151 47.8682H436.149ZM11.8545 77.4854H28.3447L26.8164 84.7354H0L7.78711 47.8682H18.1172L11.8545 77.4854ZM126.962 64.0576L142.128 47.8682H154.189L138.107 64.1055L147.423 84.7354H134.803L126.761 65.127L122.588 84.7354H112.255L120.042 47.8682H130.372L126.962 64.0576ZM166.352 62.2686H178.614L181.619 47.8682H191.949L184.162 84.7354H173.829L176.984 69.8252H164.667L161.512 84.7354H151.284L159.071 47.8682H169.354L166.352 62.2686ZM407.506 84.7354H396.005L395.038 77.332H380.329L376.258 84.7354H366.078L388.371 47.8682H400.787L407.506 84.7354ZM484.489 55.1689H473.04L466.777 84.7354H456.496L462.758 55.1689H451.563L453.092 47.8682H486.018L484.489 55.1689ZM492.277 84.7354H481.794L489.581 47.8682H500.064L492.277 84.7354ZM527.545 75.3408L533.245 47.8682H542.152L534.365 84.7354H520.625L514.009 56.0908L508.056 84.7354H499.098L506.885 47.8682H520.929L527.545 75.3408ZM586.223 64.3799V64.377L546.144 84.6572C545.6 84.9252 545.171 84.1365 545.69 83.8232L586.758 59.6543L586.223 64.3799ZM53.9404 54.25C47.2222 54.25 44.1689 60.0692 42.7939 66.4004C41.5721 72.2739 42.0831 78.0967 48.8525 78.0967C56.1291 78.0964 58.777 71.3553 59.8457 66.25C60.9143 61.0909 60.2537 58.5397 59.4883 56.9072C58.4196 54.8651 56.1799 54.25 53.9404 54.25ZM271.123 77.6357H275.5C282.269 77.5845 287.205 74.6749 289.039 66.0967C291.381 54.9134 283.036 54.9131 279.932 54.9131L275.908 54.8613L271.123 77.6357ZM384.145 70.5391H394.12L392.643 55.0664H392.49L384.145 70.5391ZM426.074 63.6963V63.6992H429.893C432.132 63.6992 433.252 63.6988 434.168 63.3916C436.557 62.6776 437.476 60.3797 437.731 59.2051C438.698 54.6601 434.726 54.6602 431.775 54.6602H427.96L426.074 63.6963ZM571.422 44.5117L551.479 63.1182C551.029 63.5212 550.408 62.8772 550.822 62.4375L568.423 44.4102L571.422 44.5117ZM593.663 55.8438L614.953 43.1572L597.227 42.7686H597.224L593.663 55.8438ZM571.428 44.5127L571.422 44.5117L571.425 44.5098L571.428 44.5127Z" fill="white"/>
</svg>
