<svg width="416" height="52" viewBox="0 0 416 52" fill="none" xmlns="http://www.w3.org/2000/svg">
<path d="M81.3419 14.2642V34.4837C81.3419 36.6252 80.252 36.96 79.1994 37.2962V38.012H88.5246V37.2962C87.4765 36.957 86.3837 36.6312 86.3837 34.4837V14.2642C86.3837 13.0462 86.7614 12.7488 88.3589 12.7488C92.7258 12.7488 94.8668 12.8355 96.4194 15.2625L96.9644 14.9292L95.2027 9.74805H72.481L70.7178 14.9292L71.2643 15.2625C73.1544 12.8669 74.6235 12.7488 79.3681 12.7488C80.9626 12.7518 81.3419 13.0462 81.3419 14.2642ZM91.9659 17.1634C93.3499 17.5415 94.0665 17.8777 94.0665 19.9774V34.4822C94.0665 36.6237 93.3544 36.9585 91.9659 37.2947V38.012H109.561L111.575 32.9549L111.025 32.5783C109.262 34.9036 107.414 35.4356 104.98 35.4356H100.443C99.0172 35.4356 98.6813 35.4043 98.6813 34.004V27.9546H104.18C106.321 27.9546 106.655 28.4642 106.996 29.724H107.832V23.6746H106.996C106.655 24.9373 106.321 25.4858 104.18 25.4858H98.6828V20.3988C98.6828 19.3467 99.0187 19.0015 100.445 19.0015C100.445 19.0015 103.974 19.0015 104.308 19.0015C106.784 19.0015 108.089 19.6396 109.977 21.6466L110.522 21.273L108.76 16.4386H91.9659V17.1634ZM114.595 19.6456L119.973 27.2462L114.888 34.4762C113.336 36.6581 112.414 36.9495 110.982 37.2887V38.0031H119.131V37.2887C117.576 36.9943 116.905 36.4025 117.954 34.7706L121.513 29.2114L125.261 34.6152C126.646 36.5923 125.174 37.1303 123.913 37.3037V38.021H138.65V37.3037C137.181 37.0526 136.509 36.546 137.263 34.533L138.223 32.0194H147.045L147.97 34.533C148.56 36.1769 148.348 37.0526 146.625 37.3037V38.021H155.697V37.3037C154.647 36.9659 153.681 36.0947 153.221 34.8648L146.209 16.452H141.422L134.704 33.6095C133.989 35.3789 133.339 36.2307 132.624 36.7134C132.072 36.3637 131.561 35.8137 130.882 34.8737L124.977 26.4796L129.75 19.7308C131.01 17.921 132.063 17.5459 133.321 17.1634V16.446H125.634V17.1634C127.227 17.2889 127.691 18.1751 126.767 19.5529L123.438 24.489L120.43 19.9684C119.169 18.1198 120.091 17.3621 121.479 17.1439V16.4311H111.278V17.1439C112.703 17.5415 113.42 17.9614 114.595 19.6456ZM142.726 20.1881L146.176 29.6044H139.142L142.726 20.1881ZM157.676 38.012C157.676 37.6698 158.012 36.9555 158.429 36.9555C159.39 37.4217 161.034 38.3841 164.054 38.3841C169.138 38.3841 172.703 35.866 172.703 31.5785C172.703 27.5436 170.477 25.9012 166.194 24.9373L162.288 24.0526C160.064 23.549 159.35 22.9049 159.35 21.5331C159.35 19.9355 160.607 18.8849 163.381 18.8849C166.485 18.8849 168.923 20.3584 170.686 22.3908L171.234 22.0128L169.64 16.4595H168.63C168.63 16.9243 168.423 17.4264 168 17.4264C167.073 16.9213 165.647 16.1262 163.214 16.1262C158.847 16.1262 155.447 18.3918 155.447 22.5119C155.447 25.6562 157.337 27.6318 161.452 28.5598L165.147 29.3997C167.623 29.9332 168.505 30.8254 168.505 32.384C168.505 34.5255 166.786 35.6613 163.971 35.6613C160.023 35.6613 157.506 33.5885 155.447 31.2064L154.898 31.5845L156.621 38.0165L157.676 38.012Z" fill="white"/>
<path d="M186.306 10.4834C187.61 10.86 188.656 11.1977 188.656 13.2989V34.4913C188.656 36.6328 187.608 36.9705 186.306 37.3038V38.0181H196.049V37.3038C194.747 36.9675 193.696 36.6372 193.696 34.4913V13.2989C193.696 11.1918 194.747 10.857 196.049 10.4834V9.76758H186.306V10.4834ZM213.053 17.1664C214.311 17.543 215.028 17.8808 215.028 19.9819V28.811H214.903L204.07 16.4491H197.732V17.1664C198.992 17.7015 199.833 18.1289 199.833 19.9804V34.4838C199.833 36.4998 199.119 36.9645 197.732 37.2963V38.0136H204.912V37.2963C203.777 36.96 202.687 36.5012 202.687 34.4838V21.9591H202.813L217.132 38.3095H217.884V19.9804C217.884 17.8778 218.937 17.5401 219.777 17.1664V16.4476H213.059L213.053 17.1664ZM231.824 24.9434L227.918 24.0617C225.692 23.5566 224.977 22.9125 224.977 21.5391C224.977 19.9491 226.239 18.888 229.005 18.888C232.115 18.888 234.553 20.363 236.315 22.3939L236.863 22.0158L235.27 16.4626H234.259C234.259 16.9273 234.05 17.431 233.631 17.431C232.705 16.9258 231.281 16.1308 228.846 16.1308C224.473 16.1308 221.064 18.3964 221.064 22.5165C221.064 25.6592 222.956 27.6364 227.07 28.5659L230.76 29.4057C233.238 29.9393 234.123 30.8329 234.123 32.3901C234.123 34.5316 232.408 35.6554 229.586 35.6554C225.648 35.6554 223.107 33.5961 221.061 31.2095L220.513 31.5846L222.235 38.0061H223.284C223.284 37.6654 223.622 36.9585 224.04 36.9585C225.001 37.4248 226.643 38.3872 229.665 38.3872C234.744 38.3872 238.313 35.8736 238.313 31.5861C238.332 27.5497 236.106 25.9073 231.824 24.9434ZM239.592 16.4506L237.868 22.0039L238.417 22.3805C240.725 19.3094 241.357 19.0165 244.42 19.0165C245.473 19.0165 245.806 19.1017 245.806 20.4034V34.4868C245.806 36.6268 245.177 36.9615 243.457 37.2993V38.0151H252.697V37.2993C251.015 36.96 250.343 36.6447 250.343 34.4868V20.4034C250.343 19.1017 250.68 19.0165 251.733 19.0165C254.803 19.0165 255.609 19.299 257.903 22.3805L258.453 22.0039L256.731 16.4506H239.592ZM277.002 31.6265C275.701 29.5253 274.362 28.5973 272.808 28.2192V28.0936C276.5 27.5033 278.605 25.5726 278.605 22.4163C278.605 18.229 275.247 16.4446 269.832 16.4446H258.789V17.1635C260.186 17.5386 260.894 17.8778 260.894 19.9775V34.4838C260.894 36.6253 260.18 36.9585 258.789 37.2963V38.0121H267.814V37.2963C266.512 36.957 265.63 36.6268 265.63 34.4838V29.1009H267.856C270.459 29.1009 270.836 30.15 272.517 33.6828C273.905 36.5834 275.752 38.3872 279.234 38.3872C281.003 38.3872 281.713 38.045 282.426 37.6714V37.0811C279.607 36.6686 278.681 34.3597 277.002 31.6265ZM269.322 26.5843H265.624V20.8651C265.624 19.4768 265.965 19.1017 267.021 19.1017H269.41C272.014 19.1017 273.53 20.1119 273.53 22.6315C273.518 25.2811 271.797 26.5843 269.322 26.5843ZM296.109 17.1664C297.197 17.4235 298.25 17.8808 298.25 19.9819V30.6162C298.25 34.149 296.907 35.7062 292.92 35.7062C288.68 35.7062 287.164 34.149 287.164 30.6162V19.9819C287.164 17.8808 287.96 17.4175 289.269 17.1664V16.4506H280.453V17.1664C281.752 17.3772 282.593 17.8808 282.593 19.9819V30.9555C282.593 36.709 287.588 38.3962 292.296 38.3962C297.543 38.3962 301.277 36.6253 301.277 30.6088V19.976C301.277 17.8733 301.916 17.4608 303.215 17.159V16.4461H296.118L296.109 17.1664ZM318.45 30.4503L312.23 16.4506H304.508V17.1664C305.895 17.543 306.609 17.8808 306.609 19.9819V34.4853C306.609 36.3727 305.81 36.8734 304.508 37.2978V38.0151H311.354V37.2978C309.926 36.9242 309.298 36.3727 309.298 34.4853V20.9518L317.063 38.3528H317.654L325.211 20.9518V34.4853C325.211 36.6268 324.289 36.9989 323.241 37.2978V38.0151H332.055V37.2978C330.671 36.96 329.956 36.6313 329.956 34.4853V19.9819C329.956 17.8808 330.671 17.5415 332.055 17.1664V16.4506H324.457L318.45 30.4503ZM346.752 35.4507H342.216C340.789 35.4507 340.453 35.4193 340.453 34.025V27.9756H345.956C348.094 27.9756 348.435 28.4762 348.768 29.739H349.607V23.6911H348.768C348.435 24.9509 348.099 25.4993 345.956 25.4993H340.453V20.4138C340.453 19.3632 340.789 19.0225 342.216 19.0225C342.216 19.0225 345.743 19.0225 346.08 19.0225C348.556 19.0225 349.856 19.6562 351.752 21.6617L352.294 21.2836L350.523 16.4491H333.727V17.1679C335.119 17.543 335.829 17.8823 335.829 19.9819V34.4883C335.829 36.6298 335.117 36.966 333.727 37.2993V38.0166H351.322L353.339 32.9595L352.79 32.5829C351.032 34.9067 349.184 35.4507 346.752 35.4507ZM369.174 17.1664C370.431 17.543 371.15 17.8808 371.15 19.9819V28.811H371.017L360.187 16.4491H353.844V17.1664C355.107 17.7015 355.947 18.1289 355.947 19.9804V34.4838C355.947 36.4998 355.231 36.9645 353.844 37.2963V38.0136H361.025V37.2963C359.875 36.96 358.8 36.5012 358.8 34.4838V21.9591H358.924L373.242 38.3095H374.006V19.9804C374.006 17.8778 375.056 17.5401 375.893 17.1664V16.4476H369.178L369.174 17.1664ZM377.864 16.4506L376.144 22.0039L376.691 22.3805C379 19.3094 379.632 19.0165 382.695 19.0165C383.745 19.0165 384.082 19.1017 384.082 20.4034V34.4868C384.082 36.6268 383.454 36.9615 381.734 37.2993V38.0151H390.976V37.2993C389.291 36.96 388.621 36.6447 388.621 34.4868V20.4034C388.621 19.1017 388.963 19.0165 390.019 19.0165C393.085 19.0165 393.89 19.299 396.186 22.3805L396.732 22.0039L395.013 16.4506H377.864ZM408.602 24.9434L404.699 24.0617C402.476 23.5566 401.764 22.9125 401.764 21.5391C401.764 19.9491 403.019 18.888 405.787 18.888C408.893 18.888 411.331 20.363 413.098 22.3939L413.627 22.0158L412.046 16.4626H411.025C411.025 16.9273 410.807 17.431 410.393 17.431C409.469 16.9258 408.042 16.1308 405.598 16.1308C401.223 16.1308 397.815 18.3964 397.815 22.5165C397.815 25.6592 399.706 27.6364 403.818 28.5659L407.507 29.4057C409.966 29.9393 410.871 30.8329 410.871 32.3901C410.871 34.5316 409.158 35.6554 406.331 35.6554C402.391 35.6554 399.853 33.5961 397.806 31.2095L397.259 31.5846L398.964 38.0061H400.02C400.02 37.6654 400.36 36.9585 400.78 36.9585C401.743 37.4248 403.393 38.3872 406.398 38.3872C411.458 38.3872 415.044 35.8736 415.044 31.5861C415.111 27.5497 412.883 25.9073 408.602 24.9434Z" fill="white"/>
<path d="M50.188 16.2204V9.79593H39.8804L38.58 16.2802H42.2871L41.1002 22.2564H37.3916L36.1077 28.7243C36.0076 29.1636 35.933 29.4804 35.8882 29.7853C35.5836 31.7699 36.4466 31.6698 39.222 31.6698L37.953 38.0315H33.1008C28.5144 38.0315 24.7834 37.9927 25.7524 33.2838C25.9062 32.5649 26.0898 31.8386 26.2197 31.1422L27.953 22.2624H24.3863L25.5762 16.2862H29.1414L30.4388 9.80191H27.105V0H14.7641V19.9087H0C0.36578 25.0704 4.92832 25.8221 6.59299 29.4894C7.7396 32.0165 8.74139 36.4714 12.0886 36.5012C14.6521 36.5326 14.6521 33.1806 17.9531 33.1806C21.2496 33.1806 22.7127 39.4497 25.6449 44.6115C27.8425 48.6643 31.4929 51.3842 34.8013 51.6173C37.517 51.8056 38.8309 50.8821 38.8309 50.8821C38.0978 49.4056 37.7305 47.9336 37.7305 45.7188C37.7305 42.3997 40.297 39.0836 43.2277 36.8734C47.2572 33.9264 51.6541 32.81 53.1187 32.4514V22.1219C53.1187 22.1219 50.188 20.5528 50.188 16.2204ZM33.3755 31.6533L37.7111 9.78697H32.7156L28.386 31.6533H33.3755ZM39.0503 2.87377H34.0533L33.0978 7.69627H38.0918L39.0503 2.87377Z" fill="white"/>
</svg>
