<svg width="365" height="34" viewBox="0 0 365 34" fill="none" xmlns="http://www.w3.org/2000/svg">
<mask id="mask0_11189_20725" style="mask-type:luminance" maskUnits="userSpaceOnUse" x="0" y="0" width="365" height="34">
<path d="M364.639 0H0V33.0392H364.639V0Z" fill="white"/>
</mask>
<g mask="url(#mask0_11189_20725)">
<path d="M9.11503 32.1649H15.976V6.64836H25.1322V0.669434H-0.0820312V6.64836H9.07417V32.1649H9.11503Z" fill="white"/>
</g>
<path d="M36.3 18.9005H50.022V32.1652H56.8748V0.669678H50.022V12.7582H36.3V0.669678H29.4062V32.1652H36.3V18.9005Z" fill="white"/>
<path d="M70.9743 6.48524H77.3287C78.7616 6.41949 80.1668 6.89469 81.2656 7.81656C81.7338 8.25375 82.1029 8.78618 82.3481 9.378C82.5932 9.96983 82.7088 10.6073 82.6868 11.2475C82.7172 11.8923 82.6057 12.5359 82.3601 13.1329C82.1145 13.7299 81.7409 14.2657 81.2656 14.7025C80.1741 15.6381 78.7643 16.1176 77.3287 16.0416H70.9743V6.48524ZM70.9743 21.3263H75.826L82.891 32.1652H90.8384L82.891 20.3707C84.8418 19.6793 86.5346 18.4082 87.7427 16.7278C88.9413 15.0125 89.57 12.9637 89.5397 10.8714C89.5846 9.49148 89.3271 8.11847 88.7853 6.8486C88.2435 5.57873 87.4305 4.44274 86.4033 3.52027C84.1401 1.57061 81.2202 0.554452 78.2355 0.677766H64.1133V32.1652H71.0151V21.3263H70.9743Z" fill="white"/>
<path d="M137.302 8.53542L141.647 20.1175H132.867L137.302 8.53542ZM130.939 25.5577H143.535L146.042 32.1655H153.614L140.815 0.669678H133.994L121.195 32.1652H128.391L130.939 25.5577Z" fill="white"/>
<path d="M159.463 32.1652H166.324V6.6486H175.439V0.669678H150.225V6.6486H159.381V32.1652H159.463Z" fill="white"/>
<path d="M203.757 26.0556H188.361V0.669678H181.467V32.1652H203.757V26.0556Z" fill="white"/>
<mask id="mask1_11189_20725" style="mask-type:luminance" maskUnits="userSpaceOnUse" x="0" y="0" width="365" height="33">
<path d="M364.639 0.212646H0V32.8353H364.639V0.212646Z" fill="white"/>
</mask>
<g mask="url(#mask1_11189_20725)">
<path d="M233.903 4.85181C231.903 2.8671 229.406 1.45654 226.674 0.767822L228.218 8.67432C228.502 8.89704 228.775 9.13422 229.035 9.38495C229.944 10.3093 230.658 11.4081 231.132 12.6152C231.607 13.8223 231.832 15.1129 231.795 16.4094C231.818 18.0892 231.423 19.7483 230.643 21.2366C230.643 21.2775 230.602 21.2775 230.602 21.3184C230.175 22.1153 229.639 22.8492 229.01 23.4992C227.166 25.3203 224.679 26.3416 222.087 26.3416C219.496 26.3416 217.009 25.3203 215.165 23.4992C214.542 22.8466 214.009 22.113 213.581 21.3183C213.54 21.3183 213.54 21.2365 213.499 21.1958C212.763 19.7146 212.391 18.0794 212.413 16.4257C212.376 15.13 212.601 13.8401 213.074 12.6332C213.547 11.4263 214.258 10.3271 215.165 9.40127C215.419 9.14811 215.672 8.90305 215.925 8.69064L217.469 0.816791C214.772 1.53522 212.317 2.96553 210.363 4.95796C208.803 6.45216 207.57 8.25367 206.742 10.2487C205.914 12.2436 205.509 14.3887 205.552 16.5483C205.511 18.6727 205.905 20.7832 206.71 22.7497C207.514 24.7163 208.713 26.4973 210.232 27.9834C211.771 29.5036 213.602 30.6952 215.616 31.4857C217.629 32.2762 219.783 32.6491 221.945 32.5819C224.134 32.627 226.309 32.2316 228.343 31.4192C230.376 30.6067 232.225 29.3939 233.78 27.8527C235.335 26.3706 236.566 24.5817 237.394 22.5992C238.222 20.6168 238.63 18.484 238.591 16.3359C238.64 14.2096 238.249 12.0962 237.442 10.1284C236.635 8.16055 235.43 6.38076 233.903 4.90078" fill="white"/>
</g>
<mask id="mask2_11189_20725" style="mask-type:luminance" maskUnits="userSpaceOnUse" x="0" y="0" width="365" height="33">
<path d="M364.639 0.212646H0V32.8353H364.639V0.212646Z" fill="white"/>
</mask>
<g mask="url(#mask2_11189_20725)">
<path d="M263.77 31.9942C265 31.6799 266.192 31.2307 267.323 30.6547C268.199 30.172 269.02 29.5969 269.773 28.9392C270.286 28.5324 270.764 28.0844 271.203 27.5997C271.407 27.3546 271.578 27.1422 271.701 26.9789L266.8 22.6663L266.547 23.0829C266.249 23.4137 265.927 23.7222 265.583 24.0059C265.121 24.4075 264.618 24.758 264.08 25.0514C263.387 25.4275 262.659 25.7366 261.907 25.9744C261.009 26.2248 260.08 26.3512 259.147 26.3501C257.856 26.3837 256.572 26.1484 255.376 25.659C254.181 25.1697 253.101 24.4371 252.204 23.5077C251.292 22.5746 250.578 21.4673 250.104 20.252C249.629 19.0367 249.405 17.7383 249.443 16.4343C249.408 15.1381 249.634 13.848 250.109 12.6411C250.583 11.4343 251.296 10.3353 252.204 9.40988C253.101 8.4715 254.184 7.73099 255.384 7.23588C256.584 6.74076 257.874 6.50197 259.171 6.53484C260.045 6.53586 260.915 6.6484 261.76 6.86972C262.463 7.02229 263.139 7.27539 263.769 7.6212C264.26 7.91686 264.734 8.23858 265.191 8.58499C265.484 8.81097 265.758 9.06244 266.007 9.33648C266.106 9.43477 266.189 9.54774 266.252 9.67136L271.317 5.27692L270.86 4.7787C270.436 4.3128 269.968 3.88883 269.463 3.51268C268.71 2.95552 267.919 2.45326 267.094 2.00981C266.014 1.43524 264.859 1.01194 263.663 0.751792C262.218 0.413358 260.738 0.24617 259.253 0.253678C257.061 0.203915 254.881 0.600359 252.846 1.41893C250.812 2.2375 248.965 3.46111 247.418 5.01544C245.857 6.50971 244.622 8.31086 243.792 10.3056C242.961 12.3003 242.552 14.4453 242.591 16.6058C242.551 18.7308 242.947 20.8414 243.753 22.8079C244.559 24.7744 245.759 26.5552 247.279 28.0408C248.815 29.5687 250.647 30.7674 252.662 31.5637C254.678 32.3599 256.834 32.7371 259 32.672C260.612 32.6515 262.215 32.4265 263.77 32.0023" fill="white"/>
</g>
<path d="M283.296 16.8994L296.552 32.1652H304.875L290.117 15.6006L303.961 0.669678H295.679L283.296 15.0126V0.669678H276.395V32.1652H283.296V16.8994Z" fill="white"/>
<path d="M331.895 26.2189H315.168V18.7373H329.216V13.175H315.168V6.64039H331.503V0.669678H308.307V32.1652H331.936L331.895 26.2189Z" fill="white"/>
<path d="M344.402 6.48533H350.756C352.189 6.41958 353.594 6.89481 354.693 7.81675C355.161 8.25394 355.53 8.78638 355.775 9.3782C356.021 9.97002 356.136 10.6075 356.114 11.2477C356.141 11.8885 356.028 12.5275 355.782 13.1201C355.537 13.7126 355.165 14.2445 354.693 14.6787C353.601 15.6141 352.192 16.0934 350.756 16.0173H344.402V6.48533ZM344.402 21.3264H349.254L356.318 32.1653H364.291L356.343 20.3709C358.294 19.6795 359.987 18.4084 361.195 16.728C362.393 15.0127 363.022 12.9639 362.992 10.8716C363.037 9.49166 362.779 8.11866 362.238 6.84879C361.696 5.57893 360.883 4.44293 359.856 3.52046C357.588 1.57853 354.671 0.563368 351.688 0.677643H337.5V32.1653H344.402V21.3264Z" fill="white"/>
<path d="M222.07 6.53424C222.609 6.53169 223.133 6.7125 223.556 7.047C223.979 7.38149 224.275 7.8498 224.397 8.37505C224.518 8.9003 224.458 9.45127 224.225 9.93754C223.992 10.4238 223.601 10.8165 223.115 11.0511L224.079 15.9518H219.995L220.959 11.0511C220.566 10.8633 220.232 10.5715 219.993 10.2071C219.753 9.84284 219.619 9.42001 219.603 8.98458C219.62 8.34609 219.886 7.73948 220.344 7.29399C220.801 6.84849 221.415 6.59931 222.053 6.59954M228.326 19.4397L224.619 0.293945H219.514L215.789 19.4069L228.326 19.4397Z" fill="white"/>
<path d="M102.468 26.219V18.7371H116.517V13.1748H95.6074V32.1652H119.196V26.219H102.468Z" fill="white"/>
<path d="M118.741 0.669678H95.5684V6.6486H118.741V0.669678Z" fill="white"/>
</svg>

