<svg width="148" height="43" viewBox="0 0 148 43" fill="none" xmlns="http://www.w3.org/2000/svg">
<path d="M143.374 32.7614C141.275 33.2481 139.131 33.4915 136.941 33.4915C132.743 33.4915 130.644 31.8184 130.644 28.4722C130.644 28.4418 130.689 27.9247 130.781 26.9208L132.56 17.0648H129.868L131.146 10.2204H133.746L134.75 4.47102L143.511 3.69531L142.371 10.2204H147.481L146.295 17.0648H141.139L139.678 25.0044V25.6432C139.678 26.0386 139.754 26.3124 139.907 26.4645C140.059 26.5862 140.348 26.647 140.773 26.647C141.747 26.647 142.827 26.4037 144.013 25.917L143.374 32.7614Z" fill="white"/>
<path d="M81.7126 8.94438C80.5262 8.94438 79.6136 9.14211 78.9748 9.53756C78.3664 9.9026 77.8341 10.6935 77.3778 11.9103C77.0736 12.7012 76.6325 14.7089 76.0545 17.9334C75.507 21.1275 75.2332 22.9375 75.2332 23.3634C75.2332 24.3368 75.4918 25.0212 76.0089 25.4167C76.5565 25.8121 77.5147 26.0099 78.8836 26.0099C81.2563 26.0099 84.1462 25.6144 87.5532 24.8235L87.1425 32.3524C84.1006 33.1433 80.9369 33.5388 77.6516 33.5388C74.6704 33.5388 72.3129 33.2042 70.579 32.5349C68.845 31.8657 67.6587 30.9835 67.0199 29.8884C66.4115 28.7933 66.1073 27.394 66.1073 25.6905C66.1073 24.0478 66.4875 21.1123 67.248 16.8839C68.0085 12.6556 68.8298 9.68966 69.712 7.98615C71.9327 3.54486 76.3587 1.32422 82.9902 1.32422C86.2756 1.32422 89.3632 1.73489 92.2531 2.55622L89.9716 10.1307C87.1425 9.33983 84.3896 8.94438 81.7126 8.94438Z" fill="white"/>
<path d="M55.6192 33.0359H46.9952L51.0107 10.221H59.6347L55.6192 33.0359ZM55.528 9.12593C54.0374 9.12593 53.0031 8.95863 52.4252 8.62401C51.8776 8.28939 51.6038 7.71142 51.6038 6.89008C51.6038 6.40336 51.6951 5.59724 51.8776 4.47171C52.0906 3.31576 52.3339 2.41837 52.6077 1.77956C52.9119 1.11032 53.3834 0.654026 54.0222 0.410667C54.6914 0.136889 55.7105 0 57.0794 0C58.6004 0 59.6347 0.167309 60.1822 0.501926C60.7298 0.836545 61.0036 1.39931 61.0036 2.19022C61.0036 3.61995 60.7754 5.09531 60.3191 6.6163C60.0149 7.58974 59.5282 8.25897 58.859 8.62401C58.2201 8.95863 57.1098 9.12593 55.528 9.12593Z" fill="white"/>
<path d="M43.2186 9.85547L41.8954 17.5213C41.8345 17.5213 41.4087 17.6277 40.6178 17.8407C39.8268 18.0232 39.2032 18.1753 38.7469 18.297C38.3211 18.4186 37.7887 18.6164 37.1499 18.8901C36.5111 19.1639 36.0092 19.4529 35.6441 19.7571L33.317 33.0353H24.693L28.754 10.2205H35.9179L36.4198 12.4107C37.2107 11.7719 38.2602 11.2244 39.5683 10.7681C40.9067 10.2813 42.1235 9.97715 43.2186 9.85547Z" fill="white"/>
<path d="M3.10268 33.0369L7.25498 9.30944H-0.000137329L1.32312 1.82617H24.7311L23.4079 9.30944H16.0615L11.9548 33.0369H3.10268Z" fill="white"/>
<path d="M109.6 5.09863C109.96 4.47623 110.858 4.47631 111.217 5.09863L115.05 11.7373C113.624 11.1631 112.066 10.8438 110.434 10.8437C108.777 10.8438 107.198 11.1728 105.753 11.7637L109.6 5.09863ZM109.973 32.1777C105.234 31.9376 101.465 28.0181 101.464 23.2187L101.475 22.7578C101.715 18.018 105.635 14.2492 110.434 14.249L110.896 14.2598C115.483 14.4924 119.161 18.1709 119.393 22.7578L119.405 23.2187C119.405 28.1727 115.388 32.1893 110.434 32.1895L109.973 32.1777ZM111.385 20.3164L109.867 14.6504L108.458 15.0283L109.976 20.6943L111.385 20.3164ZM109.887 20.7178L106.969 15.6631L105.706 16.3926L108.624 21.4473L109.887 20.7178ZM108.551 21.5166L104.404 17.3691L103.372 18.4004L107.52 22.5488L108.551 21.5166ZM109.616 29.8057L109.573 28.8506L109.567 28.7129L109.434 28.6729L109.253 28.6064C108.829 28.4244 108.404 28.049 108.099 27.5215C107.701 26.8316 107.635 26.1027 107.829 25.6006L109.536 24.6162L109.704 24.5186L109.606 24.3506L109.082 23.4404L108.984 23.2725L108.815 23.3691L107.108 24.3535C106.577 24.2697 105.979 23.8501 105.581 23.1611C105.233 22.5583 105.136 21.9177 105.252 21.4287L105.284 21.2939L105.167 21.2197L104.361 20.7051L104.129 20.5576L104.067 20.8242C103.949 21.3225 103.961 21.885 104.095 22.4531C104.23 23.0216 104.482 23.582 104.828 24.0771C105.173 24.5721 105.601 24.9891 106.071 25.2832C106.22 25.3765 106.373 25.4553 106.527 25.5215C106.508 25.6875 106.499 25.8595 106.505 26.0352C106.525 26.5889 106.673 27.1683 106.929 27.7148C107.185 28.2615 107.543 28.7615 107.968 29.1621C108.393 29.5623 108.874 29.8538 109.365 30.001L109.628 30.0801L109.616 29.8057ZM117.527 27.9189L113.379 23.7715L112.347 24.8027L116.495 28.9502L117.527 27.9189ZM107.148 24.5566C106.934 24.5333 106.713 24.4615 106.499 24.3467C106.713 24.4612 106.934 24.5323 107.148 24.5557L107.748 24.21L107.148 24.5566ZM115.202 29.9219L112.283 24.8672L111.019 25.5967L113.938 30.6514L115.202 29.9219ZM95.0865 33.0391C94.3678 33.0391 93.9186 32.2611 94.2779 31.6387L98.1724 24.8936C98.6205 28.2047 100.379 31.0981 102.908 33.0391L95.0865 33.0391ZM117.961 33.0391C120.472 31.1117 122.224 28.2452 122.687 24.9629L126.541 31.6387C126.9 32.261 126.451 33.0389 125.732 33.0391L117.961 33.0391ZM112.441 31.291L110.923 25.625L109.513 26.0029L111.032 31.668L112.441 31.291ZM108.102 29.0205C108.001 28.9248 107.902 28.8226 107.809 28.7158C107.763 28.6623 107.717 28.6078 107.672 28.5518C107.805 28.7195 107.95 28.876 108.102 29.0195L108.102 29.0205Z" fill="white"/>
</svg>
